# xmcd
#
# Track frame offsets: 
#        187
#        12857
#        24837
#        40215
#        55365
#        66737
#        79225
#        94492
#        104825
#        117020
#        126497
#
# Disc length: 1846 seconds
#
# Revision: 5
# Processed by: cddbd v1.4PL0 Copyright (c) Steve Scherf et al.
# Submitted via: ExactAudioCopy v0.90b4
#
DISCID=9d07340b
DTITLE=Glen Campbell - Walkin' In the Sun
DYEAR=1990
DGENRE=Country
TTITLE0=She's Gone, Gone, Gone
TTITLE1=You Will Not Lose
TTITLE2=On A Good Night
TTITLE3=If I Could Only Get My Hands On You Now
TTITLE4=Walkin' In The Sun
TTITLE5=William Tell Overture
TTITLE6=Woodcarver
TTITLE7=Cheatin' Is
TTITLE8=Tied To The Tracks
TTITLE9=Somebody's Leaving
TTITLE10=Jesus On Your Mind
EXTD=
EXTT0=
EXTT1=
EXTT2=
EXTT3=
EXTT4=
EXTT5=
EXTT6=
EXTT7=
EXTT8=
EXTT9=
EXTT10=
PLAYORDER=
